<?xml version="1.0" encoding="utf-8"?>
<!-- Generator: Adobe Illustrator 19.0.0, SVG Export Plug-In . SVG Version: 6.00 Build 0)  -->
<svg version="1.1" id="Layer_1" xmlns="http://www.w3.org/2000/svg" xmlns:xlink="http://www.w3.org/1999/xlink" x="0px" y="0px"
	 viewBox="0 0 1280 1280" style="enable-background:new 0 0 1280 1280;" xml:space="preserve">
<style type="text/css">
	.st0{display:none;fill:#032C40;}
	.st1{display:none;fill:#F73829;}
	.st2{fill:#F73829;}
	.st3{fill:#FFFFFF;}
</style>
<rect id="XMLID_1_" class="st0" width="1280" height="1280"/>
<g id="XMLID_2_">
	<polygon id="XMLID_8_" class="st1" points="324.8,248 1094.3,248 1094.3,1033.9 	"/>
	<polyline id="XMLID_48_" class="st1" points="270.8,248 1094.3,248 1094.3,1054.6 	"/>
	<polyline id="XMLID_9_" class="st2" points="308.4,248 1094.3,248 1094.3,1033.9 	"/>
	<g id="XMLID_46_">
		<path id="XMLID_10_" class="st3" d="M146.4,758.6h-42.2L75,417h29.1l20.4,235.4L144.4,417H176L146.4,758.6z"/>
		<path id="XMLID_12_" class="st3" d="M268.2,448.5h-20.9v279.1h20.9v31.1h-20.9h-31.1h-20.9v-31.1h20.9V448.5h-20.9v-31.1h72.8
			V448.5z"/>
		<path id="XMLID_14_" class="st3" d="M394.3,448.5h-33v310.1h-31.1V448.5h-33v-31.1h97.1V448.5z"/>
		<path id="XMLID_16_" class="st3" d="M514.7,758.6h-29.6l-8.7-105.3H454l-9.2,105.3h-31.1L442.9,417h42.2L514.7,758.6z
			 M456.9,621.3h16.5l-8.3-98L456.9,621.3z"/>
		<path id="XMLID_19_" class="st3" d="M560.3,727.6h42.2v31.1h-42.2h-31.1V417.4h31.1V727.6z"/>
		<path id="XMLID_21_" class="st3" d="M162.9,796l18,18v78.1h-31.1v-64.5h-33.5V914l64.5,88.3v117.9l-18,18h-59.7l-18.4-18v-78.1
			h31.5v65h33.5v-97.5l-65-89.3V814l18.4-18H162.9z"/>
		<path id="XMLID_23_" class="st3" d="M287.6,797l18.4,18v304.8l-18.4,18h-14.1v31.1h-31.1v-31.1h-14.1l-18.4-18V815l18.4-18v-0.5
			h59.2V797z M241,828.1v278.6h33.5V828.1H241z"/>
		<path id="XMLID_26_" class="st3" d="M431.2,1120.2l-18.4,18h-59.2l-18.4-18V797h31.1v310.1h33.5V797h31.5V1120.2z"/>
		<path id="XMLID_28_" class="st3" d="M551.6,1138.2H522l-8.7-105.3h-22.3l-9.2,105.3h-31.1l29.1-341.7H522L551.6,1138.2z
			 M493.8,1000.8h16.5l-8.3-98L493.8,1000.8z"/>
		<path id="XMLID_31_" class="st3" d="M664.7,815v136.9l-16,16l16,15.5v154.8h-31.5V984.3h-34.5v153.8h-31.1V797h78.6L664.7,815z
			 M598.7,828.1v124.2h34.5V828.1H598.7z"/>
		<path id="XMLID_34_" class="st3" d="M775.8,828.1h-51v122.8h41.3v31.1h-41.3v125.2h51v31.1h-51h-31.1V797H718h57.8V828.1z"/>
		<path id="XMLID_36_" class="st3" d="M883,796l18,18v78.1h-31.1v-64.5h-33.5V914l64.5,88.3v117.9l-18,18h-59.7l-18.4-18v-78.1h31.5
			v65h33.5v-97.5l-65-89.3V814l18.4-18H883z"/>
	</g>
	<rect id="XMLID_47_" x="212" y="141.1" class="st3" width="31.4" height="168.2"/>
	<rect id="XMLID_51_" x="1010.2" y="1107.5" class="st3" width="168.2" height="31.4"/>
	<rect id="XMLID_49_" x="1178.4" y="141.1" class="st3" width="31.4" height="997.9"/>
	<rect id="XMLID_50_" x="212" y="141.1" class="st3" width="997.9" height="31.4"/>
</g>
<g id="XMLID_7_">
</g>
<g id="XMLID_38_">
</g>
<g id="XMLID_39_">
</g>
<g id="XMLID_40_">
</g>
<g id="XMLID_41_">
</g>
<g id="XMLID_42_">
</g>
</svg>
